<?xml version="1.0" encoding="utf-8"?>
<!-- Generator: Adobe Illustrator 27.9.6, SVG Export Plug-In . SVG Version: 9.03 Build 54986)  -->
<svg version="1.1" id="Layer_1" xmlns="http://www.w3.org/2000/svg" xmlns:xlink="http://www.w3.org/1999/xlink" x="0px" y="0px"
	 viewBox="0 0 976.3 966.8" style="enable-background:new 0 0 976.3 966.8;" xml:space="preserve">
<style type="text/css">
	.st0{fill:#D9073F;}
	.st1{fill:#FEFEFE;}
	.st2{fill:#FBFBFB;}
	.st3{fill:#FCFCFC;}
</style>
<path class="st0" d="M568.4,759.6c89.3,18.2,152.4,109.1,52.4,168.9c-70.9,42.4-188.5,42.5-260.5,2.3c-70-39.1-75-107.7-4.8-149.8
	c16.6-10,32.8-14.3,50.3-21.2c2.1-0.8,3.6,1.1,2.9-3.3c-69.3-108.7-184.8-207.6-157-350.2c42.6-218.1,340.6-264.6,448.1-68.9
	C782,487,680.3,604.2,594,719L568.4,759.6z"/>
<path class="st0" d="M476,47.5c-3.2-3.6-24.3,24.4-30.6,25.3c-10.3,1.4-15.2-5.5-13.2-15.3c1-5,37.4-41.8,43.7-46.8
	c11-8.7,14.2-8.7,25.3,0c6.3,4.9,42.7,41.8,43.7,46.8c3.7,18.2-15.1,19.1-24.9,7.9l-18.9-20v112.4c0,12.3-25.2,12.3-25.2,0L476,47.5
	L476,47.5z"/>
<path class="st0" d="M748.1,139.9c-14.4-2.5-15.5-21.6-1.7-24.8c9.3-2.1,54-1.7,64.7-0.5c9.3,1.1,12.6,4.4,13.7,13.6
	c1.1,9.2,1.5,59.9-0.5,66.8c-3.3,11.6-22.7,8.7-22.7,0.4v-36.8c-3.7-0.9-4.2,1.5-6.3,3.1c-23.7,18.1-50.6,58.6-73.6,73.4
	c-12.8,8.2-24.8-4.6-17.7-15.5l78.7-79.9C772.2,138.7,758.2,141.6,748.1,139.9L748.1,139.9z"/>
<path class="st0" d="M175.5,195.6c-1.8,9.8-19.7,10-22.7-0.4c-1.8-6.4-1.7-60.5-0.5-69c1.1-8.1,5.9-10.6,13.7-11.5
	c10.8-1.2,55.4-1.6,64.7,0.5c8.8,2,13.3,13.8,7.2,20c-0.4,0.4-8.4,4.7-8.9,4.7h-34.7l77.8,78.8c8.3,11.8-3.5,25.2-16.7,16.7
	c-23.1-14.9-50-55.3-73.6-73.4c-2.1-1.6-2.7-4.1-6.3-3.1C174.1,169.9,177.4,185.1,175.5,195.6L175.5,195.6z"/>
<path class="st0" d="M51.5,415.1H166c9.6,0,9.6,23.1,0,23.1H51.5c5.8,10.8,35.5,27.1,25.4,41.1c-5.8,8-12.8,4.6-19.1-0.1
	c-8.7-6.6-36.5-34.4-43.1-43c-6.7-8.8-6.7-10.2,0-19c6.6-8.7,34.4-36.5,43.1-43C64,369.4,71,366,76.8,374
	C87,388,57.2,404.3,51.5,415.1L51.5,415.1z"/>
<path class="st0" d="M925.7,438.2H811.2c-9.6,0-9.6-23.1,0-23.1h114.5c-5.8-10.8-35.6-27.1-25.4-41.1c5.8-8,12.8-4.6,19.1,0.1
	c8.7,6.6,36.5,34.4,43.1,43c6.7,8.8,6.7,10.2,0,19c-6.7,8.8-34.4,36.5-43.1,43c-6.3,4.8-13.3,8.1-19.1,0.1
	C890.1,465.3,919.9,449,925.7,438.2L925.7,438.2z"/>
<path class="st1" d="M490.6,833.1l-4.3-1.3c-26.6-40.3-52.4-81.5-80.1-121.2c-71.1-101.8-171-195.9-121.5-332.3
	c63.3-174.8,310-191.1,396.2-26.3c75.6,144.5-33.7,249.3-110,358.6C543,750.6,516.6,791.9,490.6,833.1L490.6,833.1z"/>
<path class="st1" d="M425.1,781c8.8,11.4,50.3,82.8,58.6,85.3c3.1,0.9,6.6,0.9,9.6,0c8.3-2.5,49.8-73.7,58.6-85.4l2.7-0.5
	c50,7.8,130.4,58.7,74.7,112.6c-59.8,57.9-219.5,57-280.5,1C290.4,840.2,373.9,785.4,425.1,781L425.1,781z"/>
<path class="st0" d="M385.1,306.4c64.5,4.1,140.1-7.3,203.3-0.5c10.6,1.1,21.5,8,27.2,16.9s23.4,65.7,24.3,76.5
	c2.3,25.3,1.6,46.7-16.8,65.2c-4.1,41.2,5.3,92.5,0.1,132.4c-1.2,9.4-7.3,10.8-15.8,11.5c-75.6,6.7-161-5.3-237.7,0
	c-8.4-0.2-14.6-2.7-15.8-11.5c-5.3-39.7,4.2-91.3,0.1-132.4c-18.8-18.3-19.5-42.2-16.8-67.3c1.1-10.4,17.7-62.5,22.7-71.8
	C364.5,317.1,375.7,307.9,385.1,306.4L385.1,306.4z"/>
<path class="st1" d="M600,467.6v115.5H377.2V467.6c7.3,3.4,25.3-10.6,28-10.2s9.7,7.8,16,9.3c9.5,2.2,18.5,1.3,27.5-2.2
	c3.8-1.5,9-6.8,11.9-7.1c1.8-0.2,16,11.8,33.3,10.2c11.5-1.1,18.4-9.8,21.3-10.3c2-0.4,20.3,13.7,39.2,9.8c5.3-1.1,16.6-10.1,19-9.7
	C578.5,458.2,590.5,471.6,600,467.6L600,467.6z"/>
<path class="st1" d="M612.6,387.8h-248c4.8-11.1,13.5-53.4,23.2-57.7l198.1-0.6C600.8,332.8,606.4,374.4,612.6,387.8L612.6,387.8z"
	/>
<path class="st2" d="M410.8,417.2c-4.6,0.7-9-1.5-13.8,1.9c-7.5,5.3-3.1,27.3-22.8,25.4c-15.4-1.5-14.7-19.8-13.9-31.5h256.4
	c-0.9,6.6,2.4,16-2.1,21c-3.9-2.2-5.3-6.8-4.3-13.8c-11.4,0.2-21.9-0.8-31.4-3c-4.2,0-8.4,0-12.6,0c-6.2,4.3-37.8,3.1-40.6,0.5
	c-0.6-0.6,4.8-3.2,0.7,1.6c-5.5-2.6-11.4-1.4-16.8-2.1c-5.1,3.5-12.1,4.4-21,2.6c-9,1.8-16,1-21-2.6c-5.5,0.6-11.3-0.5-16.8,2.1
	C436.5,420.3,423.2,419.6,410.8,417.2L410.8,417.2z"/>
<path class="st3" d="M410.8,417.2c0.6-0.1,2.3-2,5.1-2.2c11.9-0.9,24.9,0.8,36.9,0.1c0.7,0.5-1.7,2.9-2.1,4.2
	c-3.1,10.5-2.3,25.3-17.9,25.3C415.6,444.6,419.1,426.7,410.8,417.2L410.8,417.2z"/>
<path class="st3" d="M566.3,417.2c-8.3,9.5-4.8,27.4-22.1,27.4c-15.5,0-14.7-14.8-17.9-25.3c-0.4-1.3-2.8-3.7-2.1-4.2
	c12.3,0.1,24.6-0.2,36.9-0.1C564,415,566.1,417.2,566.3,417.2L566.3,417.2z"/>
<path class="st2" d="M509.6,417.2c-5.7,9-5.8,26.5-20.1,27.3c-17.5,1-15.2-17-21.9-27.3C485.1,415.2,492.1,415,509.6,417.2
	L509.6,417.2z"/>
<path class="st2" d="M578.9,417.2c0.3,0,2.4-2.1,5.1-2.2c10.2-0.3,20.5,0.4,30.7,0.1c-0.7,5.9,0.9,13.3,0,18.9
	c-1.4,8.8-10.7,12.2-19,9.6C582.6,439.5,587.2,425.5,578.9,417.2L578.9,417.2z"/>
</svg>
